<svg width="29" height="29" viewBox="0 0 29 29" fill="none" xmlns="http://www.w3.org/2000/svg">
<g id="mdi-light:account">
<path id="Vector" d="M13.8955 16.9167C18.898 16.9167 22.958 18.8138 22.958 21.1459V24.1667H4.83301V21.1459C4.83301 18.8138 8.89301 16.9167 13.8955 16.9167ZM21.7497 21.1459C21.7497 19.4784 18.2334 18.125 13.8955 18.125C9.55759 18.125 6.04134 19.4784 6.04134 21.1459V22.9584H21.7497V21.1459ZM13.8955 6.04169C15.0172 6.04169 16.0929 6.48726 16.886 7.28038C17.6791 8.0735 18.1247 9.14921 18.1247 10.2709C18.1247 11.3925 17.6791 12.4682 16.886 13.2613C16.0929 14.0544 15.0172 14.5 13.8955 14.5C12.7739 14.5 11.6982 14.0544 10.905 13.2613C10.1119 12.4682 9.66634 11.3925 9.66634 10.2709C9.66634 9.14921 10.1119 8.0735 10.905 7.28038C11.6982 6.48726 12.7739 6.04169 13.8955 6.04169ZM13.8955 7.25002C13.0943 7.25002 12.326 7.56829 11.7595 8.1348C11.1929 8.70132 10.8747 9.46968 10.8747 10.2709C10.8747 11.072 11.1929 11.8404 11.7595 12.4069C12.326 12.9734 13.0943 13.2917 13.8955 13.2917C14.6967 13.2917 15.465 12.9734 16.0316 12.4069C16.5981 11.8404 16.9163 11.072 16.9163 10.2709C16.9163 9.46968 16.5981 8.70132 16.0316 8.1348C15.465 7.56829 14.6967 7.25002 13.8955 7.25002Z" fill="white"/>
</g>
</svg>
