<svg width="17" height="16" viewBox="0 0 17 16" fill="none" xmlns="http://www.w3.org/2000/svg">
<g id="copy-05">
<path id="Icon" d="M5.82617 10.6666V12.5333C5.82617 13.28 5.82617 13.6534 5.9715 13.9386C6.09933 14.1895 6.3033 14.3934 6.55418 14.5213C6.8394 14.6666 7.21277 14.6666 7.95951 14.6666H13.0262C13.7729 14.6666 14.1463 14.6666 14.4315 14.5213C14.6824 14.3934 14.8863 14.1895 15.0142 13.9386C15.1595 13.6534 15.1595 13.28 15.1595 12.5333V7.46659C15.1595 6.71985 15.1595 6.34648 15.0142 6.06126C14.8863 5.81038 14.6824 5.60641 14.4315 5.47858C14.1463 5.33325 13.7729 5.33325 13.0262 5.33325H11.1595M3.95951 10.6666H9.02617C9.77291 10.6666 10.1463 10.6666 10.4315 10.5213C10.6824 10.3934 10.8863 10.1895 11.0142 9.93857C11.1595 9.65336 11.1595 9.27999 11.1595 8.53325V3.46659C11.1595 2.71985 11.1595 2.34648 11.0142 2.06126C10.8863 1.81038 10.6824 1.60641 10.4315 1.47858C10.1463 1.33325 9.77291 1.33325 9.02617 1.33325H3.95951C3.21277 1.33325 2.8394 1.33325 2.55418 1.47858C2.3033 1.60641 2.09933 1.81038 1.9715 2.06126C1.82617 2.34648 1.82617 2.71985 1.82617 3.46659V8.53325C1.82617 9.27999 1.82617 9.65336 1.9715 9.93857C2.09933 10.1895 2.3033 10.3934 2.55418 10.5213C2.8394 10.6666 3.21277 10.6666 3.95951 10.6666Z" stroke="#6B714B" stroke-width="1.5" stroke-linecap="round" stroke-linejoin="round"/>
</g>
</svg>
