<svg width="29" height="29" viewBox="0 0 29 29" fill="none" xmlns="http://www.w3.org/2000/svg">
<g id="material-symbols-light:shopping-cart-outline-rounded">
<path id="Vector" d="M8.83083 25.514C8.32091 25.514 7.89115 25.3396 7.54153 24.9908C7.19273 24.6412 7.01833 24.2114 7.01833 23.7015C7.01833 23.1924 7.19273 22.763 7.54153 22.4134C7.89115 22.0638 8.32091 21.889 8.83083 21.889C9.33994 21.889 9.7693 22.0638 10.1189 22.4134C10.4685 22.763 10.6433 23.1924 10.6433 23.7015C10.6433 24.2114 10.4685 24.6412 10.1189 24.9908C9.7693 25.3396 9.33994 25.514 8.83083 25.514ZM20.1698 25.514C19.6607 25.514 19.2314 25.3396 18.8817 24.9908C18.5321 24.6412 18.3573 24.2114 18.3573 23.7015C18.3573 23.1924 18.5321 22.763 18.8817 22.4134C19.2314 22.0638 19.6607 21.889 20.1698 21.889C20.6797 21.889 21.1095 22.0638 21.4591 22.4134C21.8079 22.763 21.9823 23.1924 21.9823 23.7015C21.9823 24.2114 21.8079 24.6412 21.4591 24.9908C21.1095 25.3396 20.6797 25.514 20.1698 25.514ZM7.10653 6.64587L10.3316 13.4307H18.3489C18.4882 13.4307 18.6119 13.396 18.7198 13.3267C18.8286 13.2567 18.9216 13.16 18.999 13.0367L22.1587 7.29717C22.2522 7.12639 22.2602 6.97494 22.1829 6.84283C22.1056 6.71153 21.9739 6.64587 21.7878 6.64587H7.10653ZM6.51566 5.43754H22.2482C22.7726 5.43754 23.1673 5.65182 23.4323 6.08037C23.6982 6.50812 23.7123 6.94917 23.4746 7.4035L20.0212 13.6965C19.8464 13.9905 19.6192 14.2213 19.3397 14.3889C19.0602 14.5556 18.7529 14.639 18.4177 14.639H9.78783L8.3197 17.3348C8.19565 17.5201 8.19162 17.7215 8.30762 17.939C8.42362 18.1565 8.59802 18.2652 8.83083 18.2652H21.3782C21.5505 18.2652 21.6943 18.3228 21.8095 18.438C21.9247 18.5532 21.9823 18.6966 21.9823 18.8682C21.9823 19.0406 21.9247 19.1843 21.8095 19.2995C21.6943 19.4147 21.5505 19.4723 21.3782 19.4723H8.83083C8.12596 19.4723 7.59994 19.1755 7.25274 18.5818C6.90635 17.9873 6.89789 17.3904 7.22737 16.791L9.0447 13.5527L4.60166 4.22921H3.02116C2.84958 4.22921 2.70578 4.17161 2.58978 4.05642C2.47459 3.94042 2.41699 3.79662 2.41699 3.62504C2.41699 3.45346 2.47459 3.30967 2.58978 3.19367C2.70578 3.07847 2.84958 3.02087 3.02116 3.02087H4.7527C4.94281 3.02087 5.1156 3.06961 5.27108 3.16708C5.42574 3.26455 5.54577 3.4011 5.63116 3.57671L6.51566 5.43754Z" fill="white"/>
</g>
</svg>
