<svg width="0" height="0" class="hidden">
  <symbol xmlns="http://www.w3.org/2000/svg" fill="none" stroke-width="1.5" stroke="currentColor" viewBox="0 0 24 24" id="menu">
    <path stroke-linecap="round" stroke-linejoin="round" d="M3.75 6.75h16.5M3.75 12h16.5m-16.5 5.25h16.5"></path>
  </symbol>
  <symbol xmlns="http://www.w3.org/2000/svg" fill="none" stroke-width="1.5" stroke="currentColor" viewBox="0 0 24 24" id="x">
    <path stroke-linecap="round" stroke-linejoin="round" d="M6 18 18 6M6 6l12 12"></path>
  </symbol>
  <symbol fill="none" xmlns="http://www.w3.org/2000/svg" viewBox="0 0 29 29" id="shopping-cart">
    <g>
      <path d="M8.83083 25.514C8.32091 25.514 7.89115 25.3396 7.54153 24.9908C7.19273 24.6412 7.01833 24.2114 7.01833 23.7015C7.01833 23.1924 7.19273 22.763 7.54153 22.4134C7.89115 22.0638 8.32091 21.889 8.83083 21.889C9.33994 21.889 9.7693 22.0638 10.1189 22.4134C10.4685 22.763 10.6433 23.1924 10.6433 23.7015C10.6433 24.2114 10.4685 24.6412 10.1189 24.9908C9.7693 25.3396 9.33994 25.514 8.83083 25.514ZM20.1698 25.514C19.6607 25.514 19.2314 25.3396 18.8817 24.9908C18.5321 24.6412 18.3573 24.2114 18.3573 23.7015C18.3573 23.1924 18.5321 22.763 18.8817 22.4134C19.2314 22.0638 19.6607 21.889 20.1698 21.889C20.6797 21.889 21.1095 22.0638 21.4591 22.4134C21.8079 22.763 21.9823 23.1924 21.9823 23.7015C21.9823 24.2114 21.8079 24.6412 21.4591 24.9908C21.1095 25.3396 20.6797 25.514 20.1698 25.514ZM7.10653 6.64587L10.3316 13.4307H18.3489C18.4882 13.4307 18.6119 13.396 18.7198 13.3267C18.8286 13.2567 18.9216 13.16 18.999 13.0367L22.1587 7.29717C22.2522 7.12639 22.2602 6.97494 22.1829 6.84283C22.1056 6.71153 21.9739 6.64587 21.7878 6.64587H7.10653ZM6.51566 5.43754H22.2482C22.7726 5.43754 23.1673 5.65182 23.4323 6.08037C23.6982 6.50812 23.7123 6.94917 23.4746 7.4035L20.0212 13.6965C19.8464 13.9905 19.6192 14.2213 19.3397 14.3889C19.0602 14.5556 18.7529 14.639 18.4177 14.639H9.78783L8.3197 17.3348C8.19565 17.5201 8.19162 17.7215 8.30762 17.939C8.42362 18.1565 8.59802 18.2652 8.83083 18.2652H21.3782C21.5505 18.2652 21.6943 18.3228 21.8095 18.438C21.9247 18.5532 21.9823 18.6966 21.9823 18.8682C21.9823 19.0406 21.9247 19.1843 21.8095 19.2995C21.6943 19.4147 21.5505 19.4723 21.3782 19.4723H8.83083C8.12596 19.4723 7.59994 19.1755 7.25274 18.5818C6.90635 17.9873 6.89789 17.3904 7.22737 16.791L9.0447 13.5527L4.60166 4.22921H3.02116C2.84958 4.22921 2.70578 4.17161 2.58978 4.05642C2.47459 3.94042 2.41699 3.79662 2.41699 3.62504C2.41699 3.45346 2.47459 3.30967 2.58978 3.19367C2.70578 3.07847 2.84958 3.02087 3.02116 3.02087H4.7527C4.94281 3.02087 5.1156 3.06961 5.27108 3.16708C5.42574 3.26455 5.54577 3.4011 5.63116 3.57671L6.51566 5.43754Z" fill="currentColor"></path>
    </g>
  </symbol>
  <symbol fill="none" xmlns="http://www.w3.org/2000/svg" viewBox="0 0 29 29" id="account">
    <g >
      <path d="M13.8955 16.9167C18.898 16.9167 22.958 18.8138 22.958 21.1459V24.1667H4.83301V21.1459C4.83301 18.8138 8.89301 16.9167 13.8955 16.9167ZM21.7497 21.1459C21.7497 19.4784 18.2334 18.125 13.8955 18.125C9.55759 18.125 6.04134 19.4784 6.04134 21.1459V22.9584H21.7497V21.1459ZM13.8955 6.04169C15.0172 6.04169 16.0929 6.48726 16.886 7.28038C17.6791 8.0735 18.1247 9.14921 18.1247 10.2709C18.1247 11.3925 17.6791 12.4682 16.886 13.2613C16.0929 14.0544 15.0172 14.5 13.8955 14.5C12.7739 14.5 11.6982 14.0544 10.905 13.2613C10.1119 12.4682 9.66634 11.3925 9.66634 10.2709C9.66634 9.14921 10.1119 8.0735 10.905 7.28038C11.6982 6.48726 12.7739 6.04169 13.8955 6.04169ZM13.8955 7.25002C13.0943 7.25002 12.326 7.56829 11.7595 8.1348C11.1929 8.70132 10.8747 9.46968 10.8747 10.2709C10.8747 11.072 11.1929 11.8404 11.7595 12.4069C12.326 12.9734 13.0943 13.2917 13.8955 13.2917C14.6967 13.2917 15.465 12.9734 16.0316 12.4069C16.5981 11.8404 16.9163 11.072 16.9163 10.2709C16.9163 9.46968 16.5981 8.70132 16.0316 8.1348C15.465 7.56829 14.6967 7.25002 13.8955 7.25002Z" fill="currentColor"></path>
    </g>
  </symbol>
  <symbol xmlns="http://www.w3.org/2000/svg" fill="none" stroke-width="1.5" stroke="currentColor" viewBox="0 0 24 24" id="arrow-right">
    <path stroke-linecap="round" stroke-linejoin="round" d="M13.5 4.5 21 12m0 0-7.5 7.5M21 12H3"></path>
  </symbol>
  <symbol fill="none" xmlns="http://www.w3.org/2000/svg" viewBox="0 0 33 32" id="trash">
    <g >
      <g >
        <path id="Vector" d="M5.56713 4.71809H9.71817V4.12545C9.71817 2.73537 10.849 1.60449 12.2391 1.60449H19.8135C21.2036 1.60449 22.3345 2.73537 22.3345 4.12545V4.71809H26.4855C27.5729 4.71809 28.458 5.60289 28.458 6.69025V7.62529C28.458 8.64321 27.6826 9.48321 26.6919 9.58689L24.6609 27.4096C24.4673 29.1117 23.0289 30.3952 21.3156 30.3952H10.7374C9.02409 30.3952 7.58569 29.1117 7.39209 27.4096L5.36105 9.58689C4.37001 9.48353 3.59497 8.64321 3.59497 7.62529V6.69025C3.59497 5.60289 4.47977 4.71809 5.56713 4.71809ZM21.0542 4.12545C21.0542 3.44097 20.4977 2.88449 19.8132 2.88449H12.2388C11.5543 2.88449 10.9979 3.44097 10.9979 4.12545V4.71809H21.0542V4.12545ZM8.66345 27.2647C8.78345 28.3197 9.67497 29.1152 10.7367 29.1152H21.315C22.3767 29.1152 23.2682 28.3197 23.3882 27.2647L25.4014 9.59777H6.65001L8.66345 27.2647ZM4.87433 7.62529C4.87433 8.00705 5.18505 8.31777 5.56681 8.31777H26.4855C26.8673 8.31777 27.178 8.00705 27.178 7.62529V6.69025C27.178 6.30881 26.8673 5.99809 26.4855 5.99809H5.56745C5.18569 5.99809 4.87497 6.30881 4.87497 6.69025V7.62529H4.87433Z" fill="currentColor"></path>
        <path id="Vector_2" d="M16.026 25.6515C15.6727 25.6515 15.386 25.3647 15.386 25.0115V13.702C15.386 13.3487 15.6727 13.062 16.026 13.062C16.3793 13.062 16.666 13.3487 16.666 13.702V25.0115C16.666 25.3647 16.3793 25.6515 16.026 25.6515Z" fill="currentColor"></path>
        <path id="Vector_3" d="M12.2002 25.6215C12.1791 25.6237 12.158 25.6247 12.1375 25.6247C11.8117 25.6247 11.5333 25.3777 11.5013 25.0468L10.405 13.7905C10.3708 13.4385 10.6281 13.1255 10.9797 13.0913C11.3365 13.0551 11.6447 13.3143 11.6789 13.666L12.7753 24.9223C12.8095 25.2743 12.5519 25.5873 12.2002 25.6215Z" fill="currentColor"></path>
        <path id="Vector_4" d="M19.9145 25.6246C19.8941 25.6246 19.8729 25.6237 19.8518 25.6214C19.5001 25.5875 19.2429 25.2742 19.2771 24.9222L20.3734 13.6659C20.4077 13.3142 20.7158 13.0554 21.0726 13.0912C21.4243 13.1251 21.6816 13.4384 21.6473 13.7904L20.551 25.0467C20.5187 25.3773 20.24 25.6246 19.9145 25.6246Z" fill="currentColor"></path>
      </g>
    </g>
  </symbol>
  <symbol fill="none" xmlns="http://www.w3.org/2000/svg" viewBox="0 0 17 16" id="copy">
    <g>
      <path id="Icon" d="M5.82617 10.6666V12.5333C5.82617 13.28 5.82617 13.6534 5.9715 13.9386C6.09933 14.1895 6.3033 14.3934 6.55418 14.5213C6.8394 14.6666 7.21277 14.6666 7.95951 14.6666H13.0262C13.7729 14.6666 14.1463 14.6666 14.4315 14.5213C14.6824 14.3934 14.8863 14.1895 15.0142 13.9386C15.1595 13.6534 15.1595 13.28 15.1595 12.5333V7.46659C15.1595 6.71985 15.1595 6.34648 15.0142 6.06126C14.8863 5.81038 14.6824 5.60641 14.4315 5.47858C14.1463 5.33325 13.7729 5.33325 13.0262 5.33325H11.1595M3.95951 10.6666H9.02617C9.77291 10.6666 10.1463 10.6666 10.4315 10.5213C10.6824 10.3934 10.8863 10.1895 11.0142 9.93857C11.1595 9.65336 11.1595 9.27999 11.1595 8.53325V3.46659C11.1595 2.71985 11.1595 2.34648 11.0142 2.06126C10.8863 1.81038 10.6824 1.60641 10.4315 1.47858C10.1463 1.33325 9.77291 1.33325 9.02617 1.33325H3.95951C3.21277 1.33325 2.8394 1.33325 2.55418 1.47858C2.3033 1.60641 2.09933 1.81038 1.9715 2.06126C1.82617 2.34648 1.82617 2.71985 1.82617 3.46659V8.53325C1.82617 9.27999 1.82617 9.65336 1.9715 9.93857C2.09933 10.1895 2.3033 10.3934 2.55418 10.5213C2.8394 10.6666 3.21277 10.6666 3.95951 10.6666Z" stroke="#6B714B" stroke-width="1.5" stroke-linecap="round" stroke-linejoin="round"></path>
    </g>
  </symbol>
  <symbol fill="none" xmlns="http://www.w3.org/2000/svg" viewBox="0 0 25 25" id="upload">
    <g id="upload (2) 1" clip-path="url(#clip0_147_761)">
      <g id="Group">
        <g id="Group_2">
          <g id="Group_3">
            <path id="Vector" d="M20.4512 6.42167C20.1665 5.28369 19.531 4.25167 18.6307 3.47858C17.5985 2.59226 16.2817 2.10415 14.9229 2.10415C13.9042 2.10415 12.9282 2.36669 12.0667 2.86827C11.1541 2.03437 9.95788 1.56592 8.7009 1.56592C6.00431 1.56592 3.80015 3.7148 3.71061 6.3899C1.5645 6.98538 0.0136719 8.95356 0.0136719 11.2001C0.0136719 12.5312 0.543174 13.7859 1.50471 14.7331C2.46048 15.6747 3.72094 16.1932 5.0537 16.1932H9.9194L9.92278 19.1854C9.92302 19.3721 9.99739 19.5511 10.1296 19.683C10.2615 19.8146 10.4403 19.8885 10.6267 19.8885H10.6276L13.4431 19.8846C13.8318 19.884 14.1465 19.5686 14.146 19.1799L14.1427 16.1932H18.9993C20.332 16.1932 21.5925 15.6747 22.5482 14.7331C23.5098 13.7859 24.0393 12.5312 24.0393 11.2001C24.0393 8.99649 22.5561 7.05657 20.4512 6.42167ZM13.4332 11.4381C13.0446 11.4386 12.7299 11.754 12.7304 12.1427L12.7375 18.4778L11.3297 18.4798L11.3264 15.4899C11.3264 15.4897 11.3264 15.4896 11.3264 15.4894C11.3264 15.4892 11.3263 15.489 11.3263 15.4888L11.3226 12.1451C11.3224 11.9584 11.248 11.7794 11.1158 11.6475C10.9839 11.5159 10.8051 11.442 10.6187 11.442C10.6184 11.442 10.6181 11.442 10.6177 11.442L10.5252 11.4421L12.0223 9.18959L13.5258 11.4379L13.4332 11.4381ZM18.9993 14.7855H14.1411L14.1389 12.8448L14.843 12.8438C15.1025 12.8435 15.3408 12.7002 15.463 12.4712C15.5852 12.2422 15.5714 11.9645 15.427 11.7487L12.6056 7.52943C12.475 7.33408 12.2555 7.21682 12.0205 7.21682C12.0201 7.21682 12.0198 7.21682 12.0195 7.21682C11.7842 7.21714 11.5645 7.33507 11.4343 7.53107L8.62474 11.7583C8.48106 11.9745 8.46801 12.2522 8.59082 12.4809C8.71343 12.7093 8.95167 12.8518 9.21093 12.8518H9.21192L9.91556 12.8508L9.91771 14.7855H5.0537C3.05089 14.7855 1.42142 13.1771 1.42142 11.2001C1.42142 9.43707 2.7586 7.91196 4.53185 7.65266C4.90223 7.5985 5.16538 7.26393 5.13085 6.8912C5.12071 6.78187 5.11559 6.67005 5.11559 6.55897C5.11559 4.58207 6.72395 2.97372 8.70095 2.97372C9.75578 2.97372 10.7504 3.43222 11.4298 4.23173C11.6695 4.51379 12.0868 4.56199 12.3845 4.34196C13.1192 3.79894 13.997 3.51195 14.9229 3.51195C17.0368 3.51195 18.8174 5.02476 19.1569 7.10912C19.204 7.39809 19.425 7.62774 19.712 7.68588C21.4036 8.02829 22.6315 9.50624 22.6315 11.2001C22.6315 13.1771 21.0021 14.7855 18.9993 14.7855ZM16.2597 19.8806C16.2593 19.8806 16.259 19.8806 16.2587 19.8806C15.87 19.8811 15.5553 20.1967 15.5558 20.5854L15.5568 21.2893L8.51799 21.2992L8.517 20.5953C8.51644 20.2069 8.20143 19.8924 7.81313 19.8924C7.8128 19.8924 7.81247 19.8924 7.81214 19.8924C7.42341 19.893 7.10874 20.2086 7.10925 20.5973L7.11122 22.005C7.1115 22.1917 7.18588 22.3707 7.31807 22.5025C7.45002 22.6341 7.62876 22.7079 7.8151 22.7079H7.81608L16.2626 22.696C16.6513 22.6955 16.966 22.3799 16.9655 21.9912L16.9635 20.5834C16.963 20.1951 16.648 19.8806 16.2597 19.8806Z" fill="#6B714B"></path>
          </g>
        </g>
      </g>
    </g>
    <defs>
      <clipPath id="clip0_147_761">
        <rect width="24.0256" height="24.0256" fill="white" transform="translate(0.0117188 0.123535)"></rect>
      </clipPath>
    </defs>
  </symbol>
</svg>