<svg width="33" height="32" viewBox="0 0 33 32" fill="none" xmlns="http://www.w3.org/2000/svg">
<g id="fi_10065140">
<g id="_19">
<path id="Vector" d="M5.56713 4.71809H9.71817V4.12545C9.71817 2.73537 10.849 1.60449 12.2391 1.60449H19.8135C21.2036 1.60449 22.3345 2.73537 22.3345 4.12545V4.71809H26.4855C27.5729 4.71809 28.458 5.60289 28.458 6.69025V7.62529C28.458 8.64321 27.6826 9.48321 26.6919 9.58689L24.6609 27.4096C24.4673 29.1117 23.0289 30.3952 21.3156 30.3952H10.7374C9.02409 30.3952 7.58569 29.1117 7.39209 27.4096L5.36105 9.58689C4.37001 9.48353 3.59497 8.64321 3.59497 7.62529V6.69025C3.59497 5.60289 4.47977 4.71809 5.56713 4.71809ZM21.0542 4.12545C21.0542 3.44097 20.4977 2.88449 19.8132 2.88449H12.2388C11.5543 2.88449 10.9979 3.44097 10.9979 4.12545V4.71809H21.0542V4.12545ZM8.66345 27.2647C8.78345 28.3197 9.67497 29.1152 10.7367 29.1152H21.315C22.3767 29.1152 23.2682 28.3197 23.3882 27.2647L25.4014 9.59777H6.65001L8.66345 27.2647ZM4.87433 7.62529C4.87433 8.00705 5.18505 8.31777 5.56681 8.31777H26.4855C26.8673 8.31777 27.178 8.00705 27.178 7.62529V6.69025C27.178 6.30881 26.8673 5.99809 26.4855 5.99809H5.56745C5.18569 5.99809 4.87497 6.30881 4.87497 6.69025V7.62529H4.87433Z" fill="#6B714B"/>
<path id="Vector_2" d="M16.026 25.6515C15.6727 25.6515 15.386 25.3647 15.386 25.0115V13.702C15.386 13.3487 15.6727 13.062 16.026 13.062C16.3793 13.062 16.666 13.3487 16.666 13.702V25.0115C16.666 25.3647 16.3793 25.6515 16.026 25.6515Z" fill="#6B714B"/>
<path id="Vector_3" d="M12.2002 25.6215C12.1791 25.6237 12.158 25.6247 12.1375 25.6247C11.8117 25.6247 11.5333 25.3777 11.5013 25.0468L10.405 13.7905C10.3708 13.4385 10.6281 13.1255 10.9797 13.0913C11.3365 13.0551 11.6447 13.3143 11.6789 13.666L12.7753 24.9223C12.8095 25.2743 12.5519 25.5873 12.2002 25.6215Z" fill="#6B714B"/>
<path id="Vector_4" d="M19.9145 25.6246C19.8941 25.6246 19.8729 25.6237 19.8518 25.6214C19.5001 25.5875 19.2429 25.2742 19.2771 24.9222L20.3734 13.6659C20.4077 13.3142 20.7158 13.0554 21.0726 13.0912C21.4243 13.1251 21.6816 13.4384 21.6473 13.7904L20.551 25.0467C20.5187 25.3773 20.24 25.6246 19.9145 25.6246Z" fill="#6B714B"/>
</g>
</g>
</svg>
