<svg width="25" height="25" viewBox="0 0 25 25" fill="none" xmlns="http://www.w3.org/2000/svg">
<g id="upload (2) 1" clip-path="url(#clip0_147_761)">
<g id="Group">
<g id="Group_2">
<g id="Group_3">
<path id="Vector" d="M20.4512 6.42167C20.1665 5.28369 19.531 4.25167 18.6307 3.47858C17.5985 2.59226 16.2817 2.10415 14.9229 2.10415C13.9042 2.10415 12.9282 2.36669 12.0667 2.86827C11.1541 2.03437 9.95788 1.56592 8.7009 1.56592C6.00431 1.56592 3.80015 3.7148 3.71061 6.3899C1.5645 6.98538 0.0136719 8.95356 0.0136719 11.2001C0.0136719 12.5312 0.543174 13.7859 1.50471 14.7331C2.46048 15.6747 3.72094 16.1932 5.0537 16.1932H9.9194L9.92278 19.1854C9.92302 19.3721 9.99739 19.5511 10.1296 19.683C10.2615 19.8146 10.4403 19.8885 10.6267 19.8885H10.6276L13.4431 19.8846C13.8318 19.884 14.1465 19.5686 14.146 19.1799L14.1427 16.1932H18.9993C20.332 16.1932 21.5925 15.6747 22.5482 14.7331C23.5098 13.7859 24.0393 12.5312 24.0393 11.2001C24.0393 8.99649 22.5561 7.05657 20.4512 6.42167ZM13.4332 11.4381C13.0446 11.4386 12.7299 11.754 12.7304 12.1427L12.7375 18.4778L11.3297 18.4798L11.3264 15.4899C11.3264 15.4897 11.3264 15.4896 11.3264 15.4894C11.3264 15.4892 11.3263 15.489 11.3263 15.4888L11.3226 12.1451C11.3224 11.9584 11.248 11.7794 11.1158 11.6475C10.9839 11.5159 10.8051 11.442 10.6187 11.442C10.6184 11.442 10.6181 11.442 10.6177 11.442L10.5252 11.4421L12.0223 9.18959L13.5258 11.4379L13.4332 11.4381ZM18.9993 14.7855H14.1411L14.1389 12.8448L14.843 12.8438C15.1025 12.8435 15.3408 12.7002 15.463 12.4712C15.5852 12.2422 15.5714 11.9645 15.427 11.7487L12.6056 7.52943C12.475 7.33408 12.2555 7.21682 12.0205 7.21682C12.0201 7.21682 12.0198 7.21682 12.0195 7.21682C11.7842 7.21714 11.5645 7.33507 11.4343 7.53107L8.62474 11.7583C8.48106 11.9745 8.46801 12.2522 8.59082 12.4809C8.71343 12.7093 8.95167 12.8518 9.21093 12.8518H9.21192L9.91556 12.8508L9.91771 14.7855H5.0537C3.05089 14.7855 1.42142 13.1771 1.42142 11.2001C1.42142 9.43707 2.7586 7.91196 4.53185 7.65266C4.90223 7.5985 5.16538 7.26393 5.13085 6.8912C5.12071 6.78187 5.11559 6.67005 5.11559 6.55897C5.11559 4.58207 6.72395 2.97372 8.70095 2.97372C9.75578 2.97372 10.7504 3.43222 11.4298 4.23173C11.6695 4.51379 12.0868 4.56199 12.3845 4.34196C13.1192 3.79894 13.997 3.51195 14.9229 3.51195C17.0368 3.51195 18.8174 5.02476 19.1569 7.10912C19.204 7.39809 19.425 7.62774 19.712 7.68588C21.4036 8.02829 22.6315 9.50624 22.6315 11.2001C22.6315 13.1771 21.0021 14.7855 18.9993 14.7855ZM16.2597 19.8806C16.2593 19.8806 16.259 19.8806 16.2587 19.8806C15.87 19.8811 15.5553 20.1967 15.5558 20.5854L15.5568 21.2893L8.51799 21.2992L8.517 20.5953C8.51644 20.2069 8.20143 19.8924 7.81313 19.8924C7.8128 19.8924 7.81247 19.8924 7.81214 19.8924C7.42341 19.893 7.10874 20.2086 7.10925 20.5973L7.11122 22.005C7.1115 22.1917 7.18588 22.3707 7.31807 22.5025C7.45002 22.6341 7.62876 22.7079 7.8151 22.7079H7.81608L16.2626 22.696C16.6513 22.6955 16.966 22.3799 16.9655 21.9912L16.9635 20.5834C16.963 20.1951 16.648 19.8806 16.2597 19.8806Z" fill="#6B714B"/>
</g>
</g>
</g>
</g>
<defs>
<clipPath id="clip0_147_761">
<rect width="24.0256" height="24.0256" fill="white" transform="translate(0.0117188 0.123535)"/>
</clipPath>
</defs>
</svg>
